<mxfile host="app.diagrams.net" modified="2023-09-25T08:04:36.646Z" agent="Mozilla/5.0 (Windows NT 10.0; Win64; x64) AppleWebKit/537.36 (KHTML, like Gecko) Chrome/116.0.0.0 Safari/537.36" version="21.8.2" etag="p7pAGSwSE0HNLkqVKFJp" type="github">
  <diagram name="페이지-1" id="45mpU2kmXm_RGpdO_gHq">
    <mxGraphModel>
      <root>
        <mxCell id="0" />
        <mxCell id="1" parent="0" />
      </root>
    </mxGraphModel>
  </diagram>
</mxfile>
